<?xml version="1.0" standalone="no"?>
<!DOCTYPE svg PUBLIC "-//W3C//DTD SVG 20010904//EN"
 "http://www.w3.org/TR/2001/REC-SVG-20010904/DTD/svg10.dtd">
<svg version="1.0" xmlns="http://www.w3.org/2000/svg"
 width="374.000000pt" height="374.000000pt" viewBox="0 0 374.000000 374.000000"
 preserveAspectRatio="xMidYMid meet">
<metadata>
Created by potrace 1.14, written by Peter Selinger 2001-2017
</metadata>
<g transform="translate(0.000000,374.000000) scale(0.100000,-0.100000)"
fill="#000000" stroke="none">
<path d="M1208 3578 c-18 -3 -169 -6 -336 -6 -166 0 -305 -2 -308 -5 -3 -2 -7
-36 -9 -73 -2 -38 -6 -85 -8 -104 -2 -19 -7 -66 -11 -105 -4 -38 -10 -77 -12
-85 -3 -8 -8 -51 -11 -95 -2 -44 -9 -81 -13 -83 -5 -2 -7 -9 -4 -16 3 -7 0
-51 -6 -97 -6 -46 -13 -115 -16 -154 -3 -38 -10 -77 -15 -86 -4 -9 -6 -18 -4
-21 3 -3 0 -40 -6 -84 -6 -43 -13 -108 -16 -144 -2 -36 -9 -70 -14 -76 -5 -6
-6 -13 -3 -17 5 -5 -3 -92 -21 -223 -2 -17 -7 -55 -10 -85 -3 -30 -8 -67 -10
-84 -2 -16 -7 -65 -11 -108 -4 -43 -10 -80 -14 -82 -4 -2 -4 -21 -1 -42 l6
-38 249 -2 c167 -1 251 -6 256 -13 4 -6 12 -75 20 -153 7 -78 14 -155 15 -172
2 -16 15 -147 29 -290 15 -143 28 -279 31 -303 3 -24 16 -157 30 -295 14 -138
27 -252 28 -254 7 -6 59 -5 347 11 162 8 354 18 425 21 227 11 449 25 478 31
15 4 27 12 27 18 0 6 32 45 71 86 39 41 84 91 101 110 17 19 88 95 157 169 69
74 154 164 187 200 34 36 96 101 138 145 42 43 76 82 76 85 0 4 12 18 28 32
15 14 74 76 132 139 58 62 133 143 168 179 34 36 70 76 78 89 8 13 26 27 39
32 35 13 24 37 -62 137 -42 49 -94 110 -117 137 -22 27 -47 54 -53 61 -7 7
-58 66 -114 132 -55 65 -122 143 -149 173 -27 30 -58 68 -70 83 -21 27 -70 38
-70 16 0 -13 -27 -45 -135 -164 -46 -49 -95 -103 -110 -120 -15 -16 -46 -50
-69 -75 -39 -41 -70 -75 -239 -260 -32 -36 -81 -88 -108 -115 -27 -28 -49 -55
-49 -61 0 -7 -6 -14 -14 -17 -14 -6 -21 20 -33 123 -2 25 -47 387 -99 805 -52
418 -101 821 -110 895 -8 74 -18 142 -21 150 -3 8 -6 43 -7 77 0 34 -4 65 -8
69 -10 9 -576 11 -620 2z"/>
</g>
</svg>
